<mxfile host="Electron" modified="2023-09-03T11:40:54.547Z" agent="Mozilla/5.0 (Windows NT 10.0; Win64; x64) AppleWebKit/537.36 (KHTML, like Gecko) draw.io/21.6.5 Chrome/114.0.5735.243 Electron/25.3.1 Safari/537.36" etag="EMNnRE6KgeAu8iJMgyh6" version="21.6.5" type="device">
  <diagram id="C5RBs43oDa-KdzZeNtuy" name="Page-1">
    <mxGraphModel dx="1383" dy="798" grid="1" gridSize="10" guides="1" tooltips="1" connect="1" arrows="1" fold="1" page="1" pageScale="1" pageWidth="827" pageHeight="1169" math="0" shadow="0">
      <root>
        <mxCell id="WIyWlLk6GJQsqaUBKTNV-0" />
        <mxCell id="WIyWlLk6GJQsqaUBKTNV-1" parent="WIyWlLk6GJQsqaUBKTNV-0" />
        <mxCell id="MIeVsVOmGcZFVNaWfFyY-133" value="" style="rounded=0;whiteSpace=wrap;html=1;fillColor=#dae8fc;strokeColor=#6c8ebf;" vertex="1" parent="WIyWlLk6GJQsqaUBKTNV-1">
          <mxGeometry x="390" y="150" width="180" height="240" as="geometry" />
        </mxCell>
        <mxCell id="MIeVsVOmGcZFVNaWfFyY-134" value="" style="rounded=0;whiteSpace=wrap;html=1;fillColor=#f8cecc;strokeColor=#b85450;" vertex="1" parent="WIyWlLk6GJQsqaUBKTNV-1">
          <mxGeometry x="140" y="150" width="170" height="240" as="geometry" />
        </mxCell>
        <mxCell id="MIeVsVOmGcZFVNaWfFyY-135" value="" style="rounded=0;html=1;jettySize=auto;orthogonalLoop=1;fontSize=11;endArrow=block;endFill=0;endSize=8;strokeWidth=1;shadow=0;labelBackgroundColor=none;edgeStyle=orthogonalEdgeStyle;entryX=0.5;entryY=0;entryDx=0;entryDy=0;" edge="1" parent="WIyWlLk6GJQsqaUBKTNV-1" source="MIeVsVOmGcZFVNaWfFyY-136" target="MIeVsVOmGcZFVNaWfFyY-133">
          <mxGeometry relative="1" as="geometry" />
        </mxCell>
        <mxCell id="MIeVsVOmGcZFVNaWfFyY-136" value="&lt;b style=&quot;border-color: var(--border-color);&quot;&gt;视频投稿&lt;br style=&quot;border-color: var(--border-color);&quot;&gt;&lt;/b&gt;&lt;b&gt;路由函数&lt;br&gt;&lt;/b&gt;&lt;b style=&quot;border-color: var(--border-color);&quot;&gt;VideoPublishAction&lt;/b&gt;&lt;b&gt;&lt;br&gt;&lt;/b&gt;" style="rounded=1;whiteSpace=wrap;html=1;fontSize=12;glass=0;strokeWidth=1;shadow=0;" vertex="1" parent="WIyWlLk6GJQsqaUBKTNV-1">
          <mxGeometry x="420" y="50" width="120" height="50" as="geometry" />
        </mxCell>
        <mxCell id="MIeVsVOmGcZFVNaWfFyY-137" value="查询成功" style="rounded=0;html=1;jettySize=auto;orthogonalLoop=1;fontSize=11;endArrow=block;endFill=0;endSize=8;strokeWidth=1;shadow=0;labelBackgroundColor=none;edgeStyle=orthogonalEdgeStyle;" edge="1" parent="WIyWlLk6GJQsqaUBKTNV-1" source="MIeVsVOmGcZFVNaWfFyY-139">
          <mxGeometry y="-30" relative="1" as="geometry">
            <mxPoint as="offset" />
            <mxPoint x="220" y="300" as="targetPoint" />
          </mxGeometry>
        </mxCell>
        <mxCell id="MIeVsVOmGcZFVNaWfFyY-139" value="&lt;b&gt;通过token&lt;br&gt;在Redis中&lt;br&gt;查询user&lt;/b&gt;" style="rhombus;whiteSpace=wrap;html=1;shadow=0;fontFamily=Helvetica;fontSize=12;align=center;strokeWidth=1;spacing=6;spacingTop=-4;" vertex="1" parent="WIyWlLk6GJQsqaUBKTNV-1">
          <mxGeometry x="155" y="170" width="130" height="80" as="geometry" />
        </mxCell>
        <mxCell id="MIeVsVOmGcZFVNaWfFyY-140" value="" style="rounded=0;html=1;jettySize=auto;orthogonalLoop=1;fontSize=11;endArrow=block;endFill=0;endSize=8;strokeWidth=1;shadow=0;labelBackgroundColor=none;edgeStyle=orthogonalEdgeStyle;" edge="1" parent="WIyWlLk6GJQsqaUBKTNV-1" target="MIeVsVOmGcZFVNaWfFyY-142">
          <mxGeometry x="0.1709" y="20" relative="1" as="geometry">
            <mxPoint as="offset" />
            <Array as="points">
              <mxPoint x="220" y="420" />
              <mxPoint x="345" y="420" />
            </Array>
            <mxPoint x="220" y="380" as="sourcePoint" />
          </mxGeometry>
        </mxCell>
        <mxCell id="MIeVsVOmGcZFVNaWfFyY-142" value="&lt;b style=&quot;border-color: var(--border-color);&quot;&gt;视频投稿&lt;br&gt;业务完成&lt;/b&gt;" style="rounded=1;whiteSpace=wrap;html=1;fontSize=12;glass=0;strokeWidth=1;shadow=0;" vertex="1" parent="WIyWlLk6GJQsqaUBKTNV-1">
          <mxGeometry x="285" y="460" width="120" height="40" as="geometry" />
        </mxCell>
        <mxCell id="MIeVsVOmGcZFVNaWfFyY-143" value="尝试从缓存完成业务" style="text;html=1;align=center;verticalAlign=middle;resizable=0;points=[];autosize=1;strokeColor=none;fillColor=none;" vertex="1" parent="WIyWlLk6GJQsqaUBKTNV-1">
          <mxGeometry x="100" y="110" width="130" height="30" as="geometry" />
        </mxCell>
        <mxCell id="MIeVsVOmGcZFVNaWfFyY-144" value="&lt;b&gt;&lt;font color=&quot;#ff0000&quot;&gt;Redis&lt;/font&gt;&lt;/b&gt;" style="text;html=1;align=center;verticalAlign=middle;resizable=0;points=[];autosize=1;strokeColor=none;fillColor=none;" vertex="1" parent="WIyWlLk6GJQsqaUBKTNV-1">
          <mxGeometry x="140" y="360" width="60" height="30" as="geometry" />
        </mxCell>
        <mxCell id="MIeVsVOmGcZFVNaWfFyY-146" style="edgeStyle=orthogonalEdgeStyle;rounded=0;orthogonalLoop=1;jettySize=auto;html=1;entryX=0.5;entryY=0;entryDx=0;entryDy=0;" edge="1" parent="WIyWlLk6GJQsqaUBKTNV-1" source="MIeVsVOmGcZFVNaWfFyY-147" target="MIeVsVOmGcZFVNaWfFyY-148">
          <mxGeometry relative="1" as="geometry" />
        </mxCell>
        <mxCell id="MIeVsVOmGcZFVNaWfFyY-147" value="&lt;b&gt;接收视频&lt;br&gt;&lt;/b&gt;" style="rhombus;whiteSpace=wrap;html=1;shadow=0;fontFamily=Helvetica;fontSize=12;align=center;strokeWidth=1;spacing=6;spacingTop=-4;" vertex="1" parent="WIyWlLk6GJQsqaUBKTNV-1">
          <mxGeometry x="425" y="170" width="130" height="80" as="geometry" />
        </mxCell>
        <mxCell id="MIeVsVOmGcZFVNaWfFyY-148" value="&lt;b style=&quot;border-color: var(--border-color);&quot;&gt;校验ID和token&lt;br style=&quot;border-color: var(--border-color);&quot;&gt;是否匹配&lt;/b&gt;" style="rhombus;whiteSpace=wrap;html=1;shadow=0;fontFamily=Helvetica;fontSize=12;align=center;strokeWidth=1;spacing=6;spacingTop=-4;" vertex="1" parent="WIyWlLk6GJQsqaUBKTNV-1">
          <mxGeometry x="440" y="300" width="100" height="80" as="geometry" />
        </mxCell>
        <mxCell id="MIeVsVOmGcZFVNaWfFyY-149" value="查询成功" style="text;html=1;align=center;verticalAlign=middle;resizable=0;points=[];autosize=1;strokeColor=none;fillColor=none;" vertex="1" parent="WIyWlLk6GJQsqaUBKTNV-1">
          <mxGeometry x="390" y="250" width="70" height="30" as="geometry" />
        </mxCell>
        <mxCell id="MIeVsVOmGcZFVNaWfFyY-150" value="&lt;b&gt;&lt;font color=&quot;#0000ff&quot;&gt;DB&lt;br&gt;(Postgresql)&lt;/font&gt;&lt;br&gt;&lt;/b&gt;" style="text;html=1;align=center;verticalAlign=middle;resizable=0;points=[];autosize=1;strokeColor=none;fillColor=none;" vertex="1" parent="WIyWlLk6GJQsqaUBKTNV-1">
          <mxGeometry x="380" y="350" width="90" height="40" as="geometry" />
        </mxCell>
        <mxCell id="MIeVsVOmGcZFVNaWfFyY-154" value="" style="rounded=0;html=1;jettySize=auto;orthogonalLoop=1;fontSize=11;endArrow=block;endFill=0;endSize=8;strokeWidth=1;shadow=0;labelBackgroundColor=none;edgeStyle=orthogonalEdgeStyle;exitX=0.5;exitY=1;exitDx=0;exitDy=0;entryX=0.5;entryY=0;entryDx=0;entryDy=0;" edge="1" parent="WIyWlLk6GJQsqaUBKTNV-1" source="MIeVsVOmGcZFVNaWfFyY-148" target="MIeVsVOmGcZFVNaWfFyY-142">
          <mxGeometry x="0.1709" y="20" relative="1" as="geometry">
            <mxPoint as="offset" />
            <mxPoint x="230" y="390" as="sourcePoint" />
            <mxPoint x="355" y="470" as="targetPoint" />
            <Array as="points">
              <mxPoint x="490" y="420" />
              <mxPoint x="345" y="420" />
            </Array>
          </mxGeometry>
        </mxCell>
        <mxCell id="MIeVsVOmGcZFVNaWfFyY-156" value="&lt;b&gt;RedisGetUserInfo&lt;/b&gt;" style="text;html=1;align=center;verticalAlign=middle;resizable=0;points=[];autosize=1;strokeColor=none;fillColor=none;" vertex="1" parent="WIyWlLk6GJQsqaUBKTNV-1">
          <mxGeometry x="215" y="150" width="120" height="30" as="geometry" />
        </mxCell>
        <mxCell id="MIeVsVOmGcZFVNaWfFyY-157" value="&lt;b&gt;VideoPublishAction&lt;/b&gt;" style="text;html=1;align=center;verticalAlign=middle;resizable=0;points=[];autosize=1;strokeColor=none;fillColor=none;" vertex="1" parent="WIyWlLk6GJQsqaUBKTNV-1">
          <mxGeometry x="440" y="150" width="140" height="30" as="geometry" />
        </mxCell>
        <mxCell id="MIeVsVOmGcZFVNaWfFyY-192" value="&lt;b style=&quot;border-color: var(--border-color);&quot;&gt;校验ID和token&lt;br style=&quot;border-color: var(--border-color);&quot;&gt;是否匹配&lt;/b&gt;" style="rhombus;whiteSpace=wrap;html=1;shadow=0;fontFamily=Helvetica;fontSize=12;align=center;strokeWidth=1;spacing=6;spacingTop=-4;" vertex="1" parent="WIyWlLk6GJQsqaUBKTNV-1">
          <mxGeometry x="170" y="300" width="100" height="80" as="geometry" />
        </mxCell>
      </root>
    </mxGraphModel>
  </diagram>
</mxfile>
